<svg xmlns="http://www.w3.org/2000/svg" viewBox="0 0 338.61 92.36" class="h-8"><path d="M129.92 45.75V2.91h11.27V7.6a13.51 13.51 0 0 1 5-4.24 14.41 14.41 0 0 1 6.46-1.44 23.79 23.79 0 0 1 2.75.29 5.81 5.81 0 0 1 1.93.7v9.87a12.29 12.29 0 0 0-2.71-.87 16.07 16.07 0 0 0-3-.28 11.64 11.64 0 0 0-6 1.64 11.31 11.31 0 0 0-4.31 4.77v27.71Zm29.43-21.33a21.93 21.93 0 0 1 6.62-15.83 22.65 22.65 0 0 1 7.27-4.72 24.09 24.09 0 0 1 17.93 0 22.8 22.8 0 0 1 7.28 4.72 22.21 22.21 0 0 1 4.9 7.02 21.77 21.77 0 0 1 1.73 8.81 21.75 21.75 0 0 1-6.62 15.79 23.65 23.65 0 0 1-32.48 0 21.31 21.31 0 0 1-4.85-7 21.7 21.7 0 0 1-1.78-8.79Zm22.86 12.42a11.15 11.15 0 0 0 8.38-3.62 12.24 12.24 0 0 0 3.46-8.8 12.34 12.34 0 0 0-3.46-8.88 11.52 11.52 0 0 0-16.77 0 12.37 12.37 0 0 0-3.47 8.88 12.27 12.27 0 0 0 3.45 8.8 11.17 11.17 0 0 0 8.42 3.57Zm26.14 3.81 5.6-7.48a34.43 34.43 0 0 0 7.15 3.66 20.21 20.21 0 0 0 6.74 1.19 12.71 12.71 0 0 0 6.05-1.23 3.71 3.71 0 0 0 2.26-3.29 3.16 3.16 0 0 0-1.28-2.63 8.81 8.81 0 0 0-4.07-1.4l-8.22-1.23q-6.33-1-9.66-4.11a10.88 10.88 0 0 1-3.33-8.31 11.78 11.78 0 0 1 4.85-9.87q4.85-3.69 13-3.7a31.2 31.2 0 0 1 9.13 1.36 32.88 32.88 0 0 1 8.47 4l-5.43 7.23a34.75 34.75 0 0 0-6.74-3.08 21.37 21.37 0 0 0-6.5-1 9.22 9.22 0 0 0-4.89 1.15 3.49 3.49 0 0 0-1.85 3.05 3.05 3.05 0 0 0 1.36 2.67 10.57 10.57 0 0 0 4.48 1.36l8.22 1.23q6.25.9 9.66 4.11a10.67 10.67 0 0 1 3.41 8.09 11.37 11.37 0 0 1-1.41 5.64 14.34 14.34 0 0 1-3.9 4.48 18.57 18.57 0 0 1-5.92 3 25 25 0 0 1-7.48 1.07 37.86 37.86 0 0 1-10.94-1.52 25.56 25.56 0 0 1-8.76-4.44Zm65.38-3.94a12.73 12.73 0 0 0 5.39-1.16 15.52 15.52 0 0 0 4.81-3.61l6.74 7a22.92 22.92 0 0 1-7.89 5.63 23.61 23.61 0 0 1-9.54 2 22.8 22.8 0 0 1-8.84-1.72 22.36 22.36 0 0 1-7.15-4.69 21.45 21.45 0 0 1-4.73-7 22.19 22.19 0 0 1-1.73-8.74 22.23 22.23 0 0 1 6.46-15.83 21.79 21.79 0 0 1 7.15-4.72 22.62 22.62 0 0 1 8.84-1.73 24.53 24.53 0 0 1 9.78 2 22.74 22.74 0 0 1 8 5.64l-6.91 7.31a17 17 0 0 0-4.93-3.86 12.5 12.5 0 0 0-5.67-1.32 10.7 10.7 0 0 0-8.16 3.58 12.62 12.62 0 0 0-3.38 8.93 12.16 12.16 0 0 0 3.42 8.8 11.12 11.12 0 0 0 8.34 3.49Zm19.16-12.29a21.77 21.77 0 0 1 1.77-8.76 22.21 22.21 0 0 1 4.85-7.07 22.69 22.69 0 0 1 7.28-4.72 24.07 24.07 0 0 1 17.92 0 22.69 22.69 0 0 1 7.28 4.72 22.05 22.05 0 0 1 4.85 7.07 21.77 21.77 0 0 1 1.77 8.76 21.7 21.7 0 0 1-1.77 8.76 21.46 21.46 0 0 1-4.85 7 23.66 23.66 0 0 1-32.48 0 21.75 21.75 0 0 1-6.62-15.76Zm22.86 12.37a11.17 11.17 0 0 0 8.39-3.62 12.27 12.27 0 0 0 3.45-8.8 12.37 12.37 0 0 0-3.45-8.88 11.53 11.53 0 0 0-16.78 0 12.37 12.37 0 0 0-3.45 8.93 12.27 12.27 0 0 0 3.45 8.8 11.19 11.19 0 0 0 8.39 3.57ZM141.9 91.94l-10.82-26.52h4.27l9 22.54 9.08-22.54h4.09l-11 26.48Zm33.45 0V65.42h4v26.52Zm22.14-4.39 2.43-2.8a15.94 15.94 0 0 0 4.4 3.12 11.15 11.15 0 0 0 4.71 1 7.94 7.94 0 0 0 4.63-1.25 3.73 3.73 0 0 0 1.8-3.17 3.24 3.24 0 0 0-1.25-2.71 9.47 9.47 0 0 0-4.12-1.45l-4.43-.72a10.06 10.06 0 0 1-5.42-2.33 6 6 0 0 1-1.8-4.56 6.65 6.65 0 0 1 2.69-5.52 11.19 11.19 0 0 1 7.07-2.08 17.72 17.72 0 0 1 5.63.93 16.48 16.48 0 0 1 5 2.66l-2.19 3a17.46 17.46 0 0 0-4.29-2.37 12.31 12.31 0 0 0-4.35-.81 7.18 7.18 0 0 0-4.16 1.09 3.32 3.32 0 0 0-1.58 2.84 3 3 0 0 0 1.1 2.48 8.27 8.27 0 0 0 3.63 1.26l4.27.69a12 12 0 0 1 6.15 2.47 6.24 6.24 0 0 1 2 4.86 7.21 7.21 0 0 1-2.89 5.9 10.19 10.19 0 0 1-3.35 1.65 15 15 0 0 1-4.31.58 15.62 15.62 0 0 1-6.13-1.24 16.64 16.64 0 0 1-5.24-3.52Zm40.7 4.39V65.42h4v26.52Zm50.95-13.24a13.43 13.43 0 0 1-1.08 5.35 13.35 13.35 0 0 1-7.32 7.24 14.34 14.34 0 0 1-10.82 0 13.39 13.39 0 0 1-4.36-2.87 13.75 13.75 0 0 1 0-19.4 13.42 13.42 0 0 1 4.36-2.9 14.34 14.34 0 0 1 10.82 0 13.41 13.41 0 0 1 7.32 7.25 13.39 13.39 0 0 1 1.08 5.33Zm-4.05 0a10.33 10.33 0 0 0-.75-4 9.94 9.94 0 0 0-2.07-3.18 9.15 9.15 0 0 0-3.1-2.1 9.89 9.89 0 0 0-3.84-.76 9.75 9.75 0 0 0-3.82.76 9.26 9.26 0 0 0-3.08 2.1 9.75 9.75 0 0 0-2.08 3.23 10.64 10.64 0 0 0 0 7.9 9.66 9.66 0 0 0 2.06 3.16 9.9 9.9 0 0 0 3.08 2.1 9.42 9.42 0 0 0 3.82.77 9.55 9.55 0 0 0 3.84-.77 9.57 9.57 0 0 0 5.2-5.26 10.33 10.33 0 0 0 .74-3.95Zm23.41-13.28h3.9l14.75 19.67V65.42h3.74v26.52h-3.48l-15.16-20.28v20.28h-3.75Z" fill="#010101"></path><rect class="cls-2" width="35.79" height="92" rx="3.62" fill="#2ba7df"></rect><path d="M80.65 5.81a3.66 3.66 0 0 0-3.64-3.89 76.5 76.5 0 0 0-54.41 22.5A77.56 77.56 0 0 0 0 79.27v9.15a3.62 3.62 0 0 0 3.62 3.62h28.54a3.63 3.63 0 0 0 3.63-3.62v-9.1c0-22.69 18.53-41.61 41.22-41.61a3.65 3.65 0 0 0 3.64-3.88Z" fill="#2e3489"></path><path d="M22.6 24.42A76.51 76.51 0 0 0 0 78.82v9.6a3.62 3.62 0 0 0 3.62 3.62h28.54a3.63 3.63 0 0 0 3.63-3.62V13.86A77.19 77.19 0 0 0 22.6 24.42Z" fill="#0172b5"></path><circle class="cls-2" cx="76.75" cy="78.68" r="13.33" fill="#2ba7df"></circle></svg>
